{
  "accessors": [
    {
      "bufferView": 2,
      "componentType": 5126,
      "count": 41251,
      "max": [
        2.925746440887451,
        4.920856475830078,
        11.46595573425293
      ],
      "min": [
        -2.370340585708618,
        -27.917844772338867,
        -5.593714714050293
      ],
      "type": "VEC3"
    },
    {
      "bufferView": 2,
      "byteOffset": 495012,
      "componentType": 5126,
      "count": 41251,
      "max": [
        1.0,
        1.0,
        1.0
      ],
      "min": [
        -1.0,
        -1.0,
        -1.0
      ],
      "type": "VEC3"
    },
    {
      "bufferView": 3,
      "componentType": 5126,
      "count": 41251,
      "max": [
        1.0,
        1.0,
        1.0,
        1.0
      ],
      "min": [
        -1.0,
        -1.0,
        -1.0,
        -1.0
      ],
      "type": "VEC4"
    },
    {
      "bufferView": 1,
      "componentType": 5126,
      "count": 41251,
      "max": [
        0.9964234828948975,
        0.9986477494239807
      ],
      "min": [
        0.001352304476313293,
        0.0013522675726562738
      ],
      "type": "VEC2"
    },
    {
      "bufferView": 1,
      "byteOffset": 330008,
      "componentType": 5126,
      "count": 41251,
      "max": [
        0.9964234828948975,
        0.9986477494239807
      ],
      "min": [
        0.001352304476313293,
        0.0013522675726562738
      ],
      "type": "VEC2"
    },
    {
      "bufferView": 1,
      "byteOffset": 660016,
      "componentType": 5126,
      "count": 41251,
      "max": [
        0.9964234828948975,
        0.9986477494239807
      ],
      "min": [
        0.001352304476313293,
        0.0013522675726562738
      ],
      "type": "VEC2"
    },
    {
      "bufferView": 1,
      "byteOffset": 990024,
      "componentType": 5126,
      "count": 41251,
      "max": [
        0.9964234828948975,
        0.9986477494239807
      ],
      "min": [
        0.001352304476313293,
        0.0013522675726562738
      ],
      "type": "VEC2"
    },
    {
      "bufferView": 0,
      "componentType": 5125,
      "count": 89001,
      "type": "SCALAR"
    }
  ],
  "asset": {
    "extras": {
      "author": "Damascus Flash (https://sketchfab.com/samzort59)",
      "license": "CC-BY-4.0 (http://creativecommons.org/licenses/by/4.0/)",
      "source": "https://sketchfab.com/3d-models/malorian-arms-3516-63270b9e7bd143118fc4800471506ba3",
      "title": "Malorian Arms 3516"
    },
    "generator": "Sketchfab-16.16.0",
    "version": "2.0"
  },
  "bufferViews": [
    {
      "buffer": 0,
      "byteLength": 356004,
      "name": "floatBufferViews",
      "target": 34963
    },
    {
      "buffer": 0,
      "byteLength": 1320032,
      "byteOffset": 356004,
      "byteStride": 8,
      "name": "floatBufferViews",
      "target": 34962
    },
    {
      "buffer": 0,
      "byteLength": 990024,
      "byteOffset": 1676036,
      "byteStride": 12,
      "name": "floatBufferViews",
      "target": 34962
    },
    {
      "buffer": 0,
      "byteLength": 660016,
      "byteOffset": 2666060,
      "byteStride": 16,
      "name": "floatBufferViews",
      "target": 34962
    }
  ],
  "buffers": [
    {
      "byteLength": 3326076,
      "uri": "scene.bin"
    }
  ],
  "extensionsUsed": [
    "KHR_materials_emissive_strength"
  ],
  "images": [
    {
      "uri": "textures/Material.001_baseColor.png"
    },
    {
      "uri": "textures/Material.001_metallicRoughness.png"
    },
    {
      "uri": "textures/Material.001_emissive.png"
    },
    {
      "uri": "textures/Material.001_normal.png"
    }
  ],
  "materials": [
    {
      "alphaMode": "BLEND",
      "doubleSided": true,
      "emissiveFactor": [
        1.0,
        1.0,
        1.0
      ],
      "emissiveTexture": {
        "index": 2
      },
      "extensions": {
        "KHR_materials_emissive_strength": {
          "emissiveStrength": 10.0
        }
      },
      "name": "Material.001",
      "normalTexture": {
        "index": 3
      },
      "pbrMetallicRoughness": {
        "baseColorTexture": {
          "index": 0
        },
        "metallicRoughnessTexture": {
          "index": 1
        }
      }
    }
  ],
  "meshes": [
    {
      "name": "w_handgun_malorian_slide.002_Material.001_0",
      "primitives": [
        {
          "attributes": {
            "NORMAL": 1,
            "POSITION": 0,
            "TANGENT": 2,
            "TEXCOORD_0": 3,
            "TEXCOORD_1": 4,
            "TEXCOORD_2": 5,
            "TEXCOORD_3": 6
          },
          "indices": 7,
          "material": 0,
          "mode": 4
        }
      ]
    }
  ],
  "nodes": [
    {
      "children": [
        1
      ],
      "matrix": [
        1.0,
        0.0,
        0.0,
        0.0,
        0.0,
        2.220446049250313e-16,
        -1.0,
        0.0,
        0.0,
        1.0,
        2.220446049250313e-16,
        0.0,
        0.0,
        0.0,
        0.0,
        1.0
      ],
      "name": "Sketchfab_model"
    },
    {
      "children": [
        2
      ],
      "matrix": [
        0.009999999776482582,
        0.0,
        0.0,
        0.0,
        0.0,
        0.0,
        0.009999999776482582,
        0.0,
        0.0,
        -0.009999999776482582,
        0.0,
        0.0,
        0.0,
        0.0,
        0.0,
        1.0
      ],
      "name": "Malorian Arms 3516.fbx"
    },
    {
      "children": [
        3
      ],
      "name": "RootNode"
    },
    {
      "children": [
        4
      ],
      "matrix": [
        100.0,
        -1.1714875624473443e-12,
        -1.1610595704271071e-12,
        0.0,
        -1.1610599384503013e-12,
        -1.6292070425155422e-05,
        -100.00001525878774,
        0.0,
        1.171487552041502e-12,
        100.00001525878774,
        -1.6292070425155422e-05,
        0.0,
        -2.8426065321052185e-11,
        -2.729019797698129e-05,
        -4.7683708544354886e-05,
        1.0
      ],
      "name": "w_handgun_malorian_slide.002"
    },
    {
      "mesh": 0,
      "name": "w_handgun_malorian_slide.002_Material.001_0"
    }
  ],
  "samplers": [
    {
      "magFilter": 9729,
      "minFilter": 9987,
      "wrapS": 10497,
      "wrapT": 10497
    }
  ],
  "scene": 0,
  "scenes": [
    {
      "name": "Sketchfab_Scene",
      "nodes": [
        0
      ]
    }
  ],
  "textures": [
    {
      "sampler": 0,
      "source": 0
    },
    {
      "sampler": 0,
      "source": 1
    },
    {
      "sampler": 0,
      "source": 2
    },
    {
      "sampler": 0,
      "source": 3
    }
  ]
}
