{
  "accessors": [
    {
      "bufferView": 2,
      "componentType": 5126,
      "count": 3392,
      "max": [
        1.8442747592926025,
        2.15010404586792,
        1.5169076919555664
      ],
      "min": [
        -1.8442747592926025,
        -2.027245283126831,
        -1.5169076919555664
      ],
      "type": "VEC3"
    },
    {
      "bufferView": 2,
      "byteOffset": 40704,
      "componentType": 5126,
      "count": 3392,
      "max": [
        1.0,
        1.0,
        1.0
      ],
      "min": [
        -1.0,
        -1.0,
        -1.0
      ],
      "type": "VEC3"
    },
    {
      "bufferView": 3,
      "componentType": 5126,
      "count": 3392,
      "max": [
        1.0,
        1.0,
        1.0,
        1.0
      ],
      "min": [
        -1.0,
        -1.0,
        -1.0,
        -1.0
      ],
      "type": "VEC4"
    },
    {
      "bufferView": 1,
      "componentType": 5126,
      "count": 3392,
      "max": [
        1.0000001192092896,
        1.0
      ],
      "min": [
        -1.4637593359623224e-08,
        0.03548091650009155
      ],
      "type": "VEC2"
    },
    {
      "bufferView": 1,
      "byteOffset": 27136,
      "componentType": 5126,
      "count": 3392,
      "max": [
        1.0000001192092896,
        1.0
      ],
      "min": [
        -1.4637593359623224e-08,
        0.03548091650009155
      ],
      "type": "VEC2"
    },
    {
      "bufferView": 1,
      "byteOffset": 54272,
      "componentType": 5126,
      "count": 3392,
      "max": [
        1.0000001192092896,
        1.0
      ],
      "min": [
        -1.4637593359623224e-08,
        0.03548091650009155
      ],
      "type": "VEC2"
    },
    {
      "bufferView": 1,
      "byteOffset": 81408,
      "componentType": 5126,
      "count": 3392,
      "max": [
        1.0000001192092896,
        1.0
      ],
      "min": [
        -1.4637593359623224e-08,
        0.03548091650009155
      ],
      "type": "VEC2"
    },
    {
      "bufferView": 1,
      "byteOffset": 108544,
      "componentType": 5126,
      "count": 3392,
      "max": [
        1.0000001192092896,
        1.0
      ],
      "min": [
        -1.4637593359623224e-08,
        0.03548091650009155
      ],
      "type": "VEC2"
    },
    {
      "bufferView": 0,
      "componentType": 5125,
      "count": 6888,
      "type": "SCALAR"
    },
    {
      "bufferView": 2,
      "byteOffset": 81408,
      "componentType": 5126,
      "count": 616,
      "max": [
        0.16828736662864685,
        1.9149447679519653,
        0.9325153231620789
      ],
      "min": [
        -0.2605260908603668,
        1.3707990646362305,
        -0.9456230998039246
      ],
      "type": "VEC3"
    },
    {
      "bufferView": 2,
      "byteOffset": 88800,
      "componentType": 5126,
      "count": 616,
      "max": [
        1.0,
        1.0,
        1.0
      ],
      "min": [
        -1.0,
        -1.0,
        -1.0
      ],
      "type": "VEC3"
    },
    {
      "bufferView": 3,
      "byteOffset": 54272,
      "componentType": 5126,
      "count": 616,
      "max": [
        1.0,
        6.107641183916712e-07,
        1.0,
        1.0
      ],
      "min": [
        -1.0,
        -1.0,
        -1.0,
        1.0
      ],
      "type": "VEC4"
    },
    {
      "bufferView": 1,
      "byteOffset": 135680,
      "componentType": 5126,
      "count": 616,
      "max": [
        1.0,
        1.0
      ],
      "min": [
        0.0,
        0.012475311756134033
      ],
      "type": "VEC2"
    },
    {
      "bufferView": 1,
      "byteOffset": 140608,
      "componentType": 5126,
      "count": 616,
      "max": [
        1.0,
        1.0
      ],
      "min": [
        0.0,
        0.012475311756134033
      ],
      "type": "VEC2"
    },
    {
      "bufferView": 1,
      "byteOffset": 145536,
      "componentType": 5126,
      "count": 616,
      "max": [
        1.0,
        1.0
      ],
      "min": [
        0.0,
        0.012475311756134033
      ],
      "type": "VEC2"
    },
    {
      "bufferView": 1,
      "byteOffset": 150464,
      "componentType": 5126,
      "count": 616,
      "max": [
        1.0,
        1.0
      ],
      "min": [
        0.0,
        0.012475311756134033
      ],
      "type": "VEC2"
    },
    {
      "bufferView": 1,
      "byteOffset": 155392,
      "componentType": 5126,
      "count": 616,
      "max": [
        1.0,
        1.0
      ],
      "min": [
        0.0,
        0.012475311756134033
      ],
      "type": "VEC2"
    },
    {
      "bufferView": 0,
      "byteOffset": 27552,
      "componentType": 5125,
      "count": 1122,
      "type": "SCALAR"
    }
  ],
  "asset": {
    "extras": {
      "author": "dominikfonta25(autism) (https://sketchfab.com/dominikfonta)",
      "license": "CC-BY-4.0 (http://creativecommons.org/licenses/by/4.0/)",
      "source": "https://sketchfab.com/3d-models/data-card-sci-fi-gold-free-download-no-ai-8b5ebb258e6a485989d4f38cfa76de53",
      "title": "Data Card – Sci-Fi Gold  FREE DOWNLOAD NO AI"
    },
    "generator": "Sketchfab-16.74.0",
    "version": "2.0"
  },
  "bufferViews": [
    {
      "buffer": 0,
      "byteLength": 32040,
      "name": "floatBufferViews",
      "target": 34963
    },
    {
      "buffer": 0,
      "byteLength": 160320,
      "byteOffset": 32040,
      "byteStride": 8,
      "name": "floatBufferViews",
      "target": 34962
    },
    {
      "buffer": 0,
      "byteLength": 96192,
      "byteOffset": 192360,
      "byteStride": 12,
      "name": "floatBufferViews",
      "target": 34962
    },
    {
      "buffer": 0,
      "byteLength": 64128,
      "byteOffset": 288552,
      "byteStride": 16,
      "name": "floatBufferViews",
      "target": 34962
    }
  ],
  "buffers": [
    {
      "byteLength": 352680,
      "uri": "scene.bin"
    }
  ],
  "images": [
    {
      "uri": "textures/Card_baseColor.png"
    },
    {
      "uri": "textures/Card_metallicRoughness.png"
    },
    {
      "uri": "textures/Card_normal.png"
    },
    {
      "uri": "textures/material_baseColor.png"
    },
    {
      "uri": "textures/material_metallicRoughness.png"
    },
    {
      "uri": "textures/material_normal.png"
    }
  ],
  "materials": [
    {
      "name": "Card",
      "normalTexture": {
        "index": 2
      },
      "occlusionTexture": {
        "index": 1
      },
      "pbrMetallicRoughness": {
        "baseColorTexture": {
          "index": 0
        },
        "metallicRoughnessTexture": {
          "index": 1
        }
      }
    },
    {
      "name": "material",
      "normalTexture": {
        "index": 5
      },
      "occlusionTexture": {
        "index": 4
      },
      "pbrMetallicRoughness": {
        "baseColorTexture": {
          "index": 3
        },
        "metallicRoughnessTexture": {
          "index": 4
        }
      }
    }
  ],
  "meshes": [
    {
      "name": "Object_0",
      "primitives": [
        {
          "attributes": {
            "NORMAL": 1,
            "POSITION": 0,
            "TANGENT": 2,
            "TEXCOORD_0": 3,
            "TEXCOORD_1": 4,
            "TEXCOORD_2": 5,
            "TEXCOORD_3": 6,
            "TEXCOORD_4": 7
          },
          "indices": 8,
          "material": 0,
          "mode": 4
        }
      ]
    },
    {
      "name": "Object_1",
      "primitives": [
        {
          "attributes": {
            "NORMAL": 10,
            "POSITION": 9,
            "TANGENT": 11,
            "TEXCOORD_0": 12,
            "TEXCOORD_1": 13,
            "TEXCOORD_2": 14,
            "TEXCOORD_3": 15,
            "TEXCOORD_4": 16
          },
          "indices": 17,
          "material": 1,
          "mode": 4
        }
      ]
    }
  ],
  "nodes": [
    {
      "children": [
        1
      ],
      "matrix": [
        1.0,
        0.0,
        0.0,
        0.0,
        0.0,
        2.220446049250313e-16,
        -1.0,
        0.0,
        0.0,
        1.0,
        2.220446049250313e-16,
        0.0,
        0.0,
        0.0,
        0.0,
        1.0
      ],
      "name": "Sketchfab_model"
    },
    {
      "children": [
        2
      ],
      "name": "root"
    },
    {
      "children": [
        3
      ],
      "matrix": [
        1.0,
        0.0,
        0.0,
        0.0,
        0.0,
        2.220446049250313e-16,
        1.0,
        0.0,
        0.0,
        -1.0,
        2.220446049250313e-16,
        0.0,
        0.0,
        0.0,
        0.0,
        1.0
      ],
      "name": "GLTF_SceneRootNode"
    },
    {
      "children": [
        4,
        7
      ],
      "name": "ROOT_0"
    },
    {
      "children": [
        5
      ],
      "matrix": [
        0.055113535374403,
        0.0,
        0.0,
        0.0,
        0.0,
        1.0413612127304077,
        0.0,
        0.0,
        0.0,
        0.0,
        1.0413612127304077,
        0.0,
        0.0,
        -0.06562961637973785,
        -0.03281480818986893,
        1.0
      ],
      "name": "Card_1"
    },
    {
      "children": [
        6
      ],
      "name": "Cube.014_2"
    },
    {
      "mesh": 0,
      "name": "Object_6"
    },
    {
      "children": [
        8
      ],
      "matrix": [
        0.1526084840297699,
        0.0,
        0.0,
        0.0,
        0.0,
        1.0,
        0.0,
        0.0,
        0.0,
        0.0,
        1.0,
        0.0,
        0.05706874281167984,
        0.0,
        0.0,
        1.0
      ],
      "name": "Pin_3"
    },
    {
      "children": [
        9
      ],
      "name": "Cube.015_4"
    },
    {
      "mesh": 1,
      "name": "Object_9"
    }
  ],
  "samplers": [
    {
      "magFilter": 9729,
      "minFilter": 9987,
      "wrapS": 10497,
      "wrapT": 10497
    }
  ],
  "scene": 0,
  "scenes": [
    {
      "name": "Sketchfab_Scene",
      "nodes": [
        0
      ]
    }
  ],
  "textures": [
    {
      "sampler": 0,
      "source": 0
    },
    {
      "sampler": 0,
      "source": 1
    },
    {
      "sampler": 0,
      "source": 2
    },
    {
      "sampler": 0,
      "source": 3
    },
    {
      "sampler": 0,
      "source": 4
    },
    {
      "sampler": 0,
      "source": 5
    }
  ]
}
